<?xml version="1.0" encoding="utf-8"?>
<!-- Generator: Adobe Illustrator 22.0.1, SVG Export Plug-In . SVG Version: 6.00 Build 0)  -->
<svg version="1.1" id="Layer_1" xmlns="http://www.w3.org/2000/svg" xmlns:xlink="http://www.w3.org/1999/xlink" x="0px" y="0px"
	 viewBox="0 0 729.6 659.7" style="enable-background:new 0 0 729.6 659.7;" xml:space="preserve">
<style type="text/css">
	.st0{fill:#640E0E;}
</style>
<g>
	<path class="st0" d="M606,134.8l0.2-0.9l29.3,8.5c16.7,4.8,34-4.2,38.6-20.3l16-55.1c4.6-16-5.1-32.9-21.8-37.8l-29.3-8.5
		c-61.4-17.8-148.3,96.2-181.9,212.3c-16.3,56.3-21.4,117.7-15.3,168c-3.7,5.9-8.9,13.1-16,20.7c-15.8,17-44.3,39.1-89.9,47.6
		c-9.5,1.8-17.6,2.5-24.5,2.5c10.2-22.4,12.2-39,6-49.4c-4.9-8.1-14.6-12.1-26.7-10.9c-11.6,1.2-21.8,9-26.6,20.5
		c-4.8,11.5-3.2,23.9,4.2,33.1c7,8.7,17.6,13,28.8,14.7c-4.6,8.5-10.4,18.3-17.9,29.5c-13.2,19.8-27,30.7-42.1,33.1
		c-24.3,4-48.7-15-70.3-31.7c-13.6-10.5-26.4-20.5-37.9-23.4c-10.6-2.7-23.6,5.1-39.7,23.7c-11.9,13.8-25.7,33.7-40.9,59.1
		C22.6,613.4,1.2,658.3,1,658.7l8.3,4c0.2-0.4,21.5-44.9,47-87.6c45.2-75.6,64.3-80.1,70.4-78.6c9.6,2.4,21.7,11.8,34.5,21.8
		c16.2,12.5,33.8,26.2,52.7,31.7c8,2.3,16.3,3.2,24.7,1.8c17.7-2.9,33.5-15,48.2-37.1c8.2-12.3,14.9-23.5,20.1-33.6
		c11.2,0.5,22.3-1,30.6-2.5c48.1-9,78.2-32.3,95-50.4c4.4-4.7,8.1-9.3,11.2-13.5c7.9,46.6,26.3,81.5,55.2,89.9l29.3,8.5
		c16.7,4.8,34-4.2,38.6-20.3l14.4-49.8c4.6-16-5.1-32.9-21.8-37.8l-29.3-8.5l0.2-0.9c-38.1-11-33-72.9-12.1-144.9
		C539.1,178.8,567.9,123.8,606,134.8z M301.5,471.4c-15.1-1.8-22.5-7.6-26-11.9c-5.3-6.6-6.4-15.5-2.9-23.8
		c3.5-8.4,10.8-14.1,19-14.9c2.2-0.2,6.1-0.4,9.9,0.7c3.1,0.9,6,2.6,7.9,5.7C312.6,432.5,314.4,444.6,301.5,471.4z"/>
</g>
</svg>
